<svg width="37" height="37" viewBox="0 0 37 37" fill="none" xmlns="http://www.w3.org/2000/svg">
<path d="M23.0171 3.85418V12.95C23.0171 13.6283 22.2154 13.9675 21.7221 13.5204L19.0242 11.0383C18.8823 10.9048 18.6948 10.8304 18.5 10.8304C18.3052 10.8304 18.1177 10.9048 17.9758 11.0383L15.2779 13.505C14.7846 13.9675 13.9829 13.6129 13.9829 12.95V3.85418C13.9829 3.42251 14.3221 3.08334 14.7537 3.08334H22.2462C22.6779 3.08334 23.0171 3.42251 23.0171 3.85418Z" fill="white"/>
<path d="M26.1775 3.1743C25.7304 3.11263 25.3296 3.49805 25.3296 3.94513V13.226C25.3296 14.3976 24.6358 15.4614 23.5567 15.9393C22.4775 16.4018 21.2287 16.2014 20.3654 15.3997L19.0242 14.1664C18.8823 14.0328 18.6948 13.9585 18.5 13.9585C18.3052 13.9585 18.1177 14.0328 17.9758 14.1664L16.6346 15.3997C16.0796 15.9239 15.355 16.186 14.6304 16.186C14.2218 16.1874 13.8175 16.1034 13.4433 15.9393C12.3642 15.4614 11.6704 14.3976 11.6704 13.226V3.94513C11.6704 3.49805 11.2696 3.11263 10.8225 3.1743C6.50583 3.71388 4.625 6.62763 4.625 10.7901V26.2068C4.625 30.8318 6.9375 33.9151 12.3333 33.9151H24.6667C30.0625 33.9151 32.375 30.8318 32.375 26.2068V10.7901C32.375 6.62763 30.4942 3.71388 26.1775 3.1743V3.1743ZM26.9792 28.9047H13.875C13.2429 28.9047 12.7187 28.3805 12.7187 27.7485C12.7187 27.1164 13.2429 26.5922 13.875 26.5922H26.9792C27.6112 26.5922 28.1354 27.1164 28.1354 27.7485C28.1354 28.3805 27.6112 28.9047 26.9792 28.9047ZM26.9792 22.738H20.4271C19.795 22.738 19.2708 22.2139 19.2708 21.5818C19.2708 20.9497 19.795 20.4255 20.4271 20.4255H26.9792C27.6112 20.4255 28.1354 20.9497 28.1354 21.5818C28.1354 22.2139 27.6112 22.738 26.9792 22.738Z" fill="white"/>
</svg>
