<svg width="23" height="24" viewBox="0 0 23 24" fill="none" xmlns="http://www.w3.org/2000/svg">
<path d="M11.5 19.6667C9.46669 19.6667 7.51665 18.8589 6.07887 17.4211C4.64109 15.9834 3.83335 14.0333 3.83335 12C3.83335 9.96666 4.64109 8.01662 6.07887 6.57884C7.51665 5.14106 9.46669 4.33332 11.5 4.33332C13.5333 4.33332 15.4834 5.14106 16.9212 6.57884C18.359 8.01662 19.1667 9.96666 19.1667 12C19.1667 14.0333 18.359 15.9834 16.9212 17.4211C15.4834 18.8589 13.5333 19.6667 11.5 19.6667M11.5 2.41666C10.2415 2.41666 8.99534 2.66454 7.83264 3.14614C6.66993 3.62775 5.61348 4.33366 4.72358 5.22355C2.92636 7.02077 1.91669 9.45833 1.91669 12C1.91669 14.5416 2.92636 16.9792 4.72358 18.7764C5.61348 19.6663 6.66993 20.3722 7.83264 20.8538C8.99534 21.3354 10.2415 21.5833 11.5 21.5833C14.0417 21.5833 16.4792 20.5737 18.2765 18.7764C20.0737 16.9792 21.0834 14.5416 21.0834 12C21.0834 10.7415 20.8355 9.49531 20.3539 8.33261C19.8723 7.1699 19.1664 6.11344 18.2765 5.22355C17.3866 4.33366 16.3301 3.62775 15.1674 3.14614C14.0047 2.66454 12.7585 2.41666 11.5 2.41666V2.41666Z" fill="#7D7C7C"/>
</svg>
