<svg width="20" height="20" viewBox="0 0 20 20" fill="none" xmlns="http://www.w3.org/2000/svg">
<path d="M5.83332 8.95834H4.16666C2.14999 8.95834 1.04166 7.85 1.04166 5.83334V4.16667C1.04166 2.15 2.14999 1.04167 4.16666 1.04167H5.83332C7.84999 1.04167 8.95832 2.15 8.95832 4.16667V5.83334C8.95832 7.85 7.84999 8.95834 5.83332 8.95834ZM4.16666 2.29167C2.84999 2.29167 2.29166 2.85001 2.29166 4.16667V5.83334C2.29166 7.15 2.84999 7.70834 4.16666 7.70834H5.83332C7.14999 7.70834 7.70832 7.15 7.70832 5.83334V4.16667C7.70832 2.85001 7.14999 2.29167 5.83332 2.29167H4.16666ZM15.8333 8.95834H14.1667C12.15 8.95834 11.0417 7.85 11.0417 5.83334V4.16667C11.0417 2.15 12.15 1.04167 14.1667 1.04167H15.8333C17.85 1.04167 18.9583 2.15 18.9583 4.16667V5.83334C18.9583 7.85 17.85 8.95834 15.8333 8.95834ZM14.1667 2.29167C12.85 2.29167 12.2917 2.85001 12.2917 4.16667V5.83334C12.2917 7.15 12.85 7.70834 14.1667 7.70834H15.8333C17.15 7.70834 17.7083 7.15 17.7083 5.83334V4.16667C17.7083 2.85001 17.15 2.29167 15.8333 2.29167H14.1667ZM15.8333 18.9583H14.1667C12.15 18.9583 11.0417 17.85 11.0417 15.8333V14.1667C11.0417 12.15 12.15 11.0417 14.1667 11.0417H15.8333C17.85 11.0417 18.9583 12.15 18.9583 14.1667V15.8333C18.9583 17.85 17.85 18.9583 15.8333 18.9583ZM14.1667 12.2917C12.85 12.2917 12.2917 12.85 12.2917 14.1667V15.8333C12.2917 17.15 12.85 17.7083 14.1667 17.7083H15.8333C17.15 17.7083 17.7083 17.15 17.7083 15.8333V14.1667C17.7083 12.85 17.15 12.2917 15.8333 12.2917H14.1667ZM5.83332 18.9583H4.16666C2.14999 18.9583 1.04166 17.85 1.04166 15.8333V14.1667C1.04166 12.15 2.14999 11.0417 4.16666 11.0417H5.83332C7.84999 11.0417 8.95832 12.15 8.95832 14.1667V15.8333C8.95832 17.85 7.84999 18.9583 5.83332 18.9583ZM4.16666 12.2917C2.84999 12.2917 2.29166 12.85 2.29166 14.1667V15.8333C2.29166 17.15 2.84999 17.7083 4.16666 17.7083H5.83332C7.14999 17.7083 7.70832 17.15 7.70832 15.8333V14.1667C7.70832 12.85 7.14999 12.2917 5.83332 12.2917H4.16666Z" fill="#7D7C7C"/>
</svg>
