<svg width="18" height="18" viewBox="0 0 18 18" fill="none" xmlns="http://www.w3.org/2000/svg">
<g clip-path="url(#clip0_220_67)">
<path d="M8.25 1.5H6.75C3 1.5 1.5 3 1.5 6.75V11.25C1.5 15 3 16.5 6.75 16.5H11.25C15 16.5 16.5 15 16.5 11.25V9.75" stroke="#4B5563" stroke-width="1.5" stroke-linecap="round" stroke-linejoin="round"/>
<path d="M12.0299 2.26501L6.11991 8.17501C5.89491 8.40001 5.66991 8.84251 5.62491 9.16501L5.30241 11.4225C5.18241 12.24 5.75991 12.81 6.57741 12.6975L8.83491 12.375C9.14991 12.33 9.59241 12.105 9.82491 11.88L15.7349 5.97001C16.7549 4.95001 17.2349 3.76501 15.7349 2.26501C14.2349 0.765006 13.0499 1.24501 12.0299 2.26501Z" stroke="#4B5563" stroke-width="1.5" stroke-miterlimit="10" stroke-linecap="round" stroke-linejoin="round"/>
<path d="M11.1826 3.11249C11.4313 3.99559 11.9026 4.80004 12.5513 5.44877C13.2001 6.09751 14.0045 6.56879 14.8876 6.81749" stroke="#4B5563" stroke-width="1.5" stroke-miterlimit="10" stroke-linecap="round" stroke-linejoin="round"/>
</g>
<defs>
<clipPath id="clip0_220_67">
<rect width="18" height="18" fill="white"/>
</clipPath>
</defs>
</svg>
