<svg width="23" height="23" viewBox="0 0 23 23" fill="none" xmlns="http://www.w3.org/2000/svg">
<path d="M20.125 21.0833H2.875C2.48208 21.0833 2.15625 20.7575 2.15625 20.3646C2.15625 19.9717 2.48208 19.6458 2.875 19.6458H20.125C20.5179 19.6458 20.8437 19.9717 20.8437 20.3646C20.8437 20.7575 20.5179 21.0833 20.125 21.0833ZM18.2275 3.33693C16.3683 1.47776 14.5475 1.42985 12.6404 3.33693L11.4808 4.49651C11.385 4.59235 11.3467 4.74568 11.385 4.87985C11.7515 6.13754 12.4293 7.28251 13.3556 8.20883C14.2819 9.13515 15.4269 9.81291 16.6846 10.1794C16.7525 10.2017 16.8253 10.2045 16.8947 10.1875C16.9641 10.1706 17.0274 10.1346 17.0775 10.0836L18.2275 8.92401C19.1763 7.98485 19.6362 7.07443 19.6362 6.15443C19.6458 5.20568 19.1858 4.28568 18.2275 3.33693V3.33693ZM14.9596 11.0496C14.6817 10.9154 14.4133 10.7813 14.1546 10.6279C13.9444 10.5027 13.7398 10.3684 13.5412 10.2254C13.3783 10.12 13.1867 9.96668 13.0046 9.81335C12.9459 9.77059 12.8914 9.72247 12.8417 9.6696C12.5254 9.40126 12.1708 9.05626 11.8546 8.67293C11.8258 8.65376 11.7779 8.58668 11.7108 8.50043C11.615 8.38543 11.4521 8.19376 11.3083 7.97335C11.1717 7.7931 11.0469 7.60424 10.9346 7.40793C10.7812 7.14918 10.6471 6.89043 10.5129 6.6221C10.493 6.57918 10.4735 6.53606 10.4545 6.49272C10.3126 6.1736 9.89575 6.08064 9.64946 6.32693L4.15917 11.8172C4.03458 11.9418 3.91958 12.1814 3.89083 12.3443L3.37333 16.0147C3.2775 16.6664 3.45958 17.2797 3.86208 17.6918C4.20708 18.0272 4.68625 18.2093 5.20375 18.2093C5.31875 18.2093 5.43375 18.1997 5.54875 18.1806L9.22875 17.6631C9.40125 17.6343 9.64083 17.5193 9.75583 17.3947L15.2394 11.9121C15.4886 11.6629 15.3937 11.2365 15.0707 11.0975C15.0337 11.0816 14.9966 11.0657 14.9596 11.0496V11.0496Z" fill="white"/>
</svg>
