<svg width="23" height="23" viewBox="0 0 23 23" fill="none" xmlns="http://www.w3.org/2000/svg">
<path d="M20.3847 8.79557C20.1068 8.35474 19.8097 7.94266 19.503 7.55932C19.4194 7.45327 19.3142 7.3661 19.1945 7.30353C19.0748 7.24096 18.9432 7.20441 18.8084 7.19626C18.6736 7.18812 18.5385 7.20857 18.4122 7.25627C18.2858 7.30398 18.1709 7.37786 18.0751 7.47307L15.2001 10.3481C15.411 10.9806 15.4493 11.7089 15.2576 12.466C15.0864 13.136 14.738 13.7475 14.249 14.2365C13.76 14.7255 13.1484 15.0739 12.4785 15.2452C11.7214 15.4368 10.993 15.3985 10.3605 15.1877L8.00304 17.5452C7.52387 18.0243 7.67721 18.8677 8.31929 19.1168C9.34471 19.5097 10.4085 19.711 11.501 19.711C13.2068 19.711 14.8647 19.2127 16.3789 18.2831C17.9218 17.3247 19.3114 15.916 20.4326 14.1239C21.343 12.6768 21.2951 10.2427 20.3847 8.79557V8.79557ZM13.4358 9.56416L9.56416 13.4358C9.07541 12.9375 8.75916 12.2475 8.75916 11.5C8.75916 9.99541 9.98583 8.75916 11.5 8.75916C12.2475 8.75916 12.9375 9.07541 13.4358 9.56416Z" fill="white"/>
<path d="M17.4896 5.51041L14.2408 8.75916C13.8824 8.39751 13.4553 8.11117 12.9846 7.91697C12.5139 7.72278 12.0092 7.62464 11.5 7.62833C9.35333 7.62833 7.62833 9.36291 7.62833 11.5C7.62833 12.5733 8.05958 13.5412 8.75916 14.2408L5.52 17.4896H5.51041C4.44666 16.6271 3.46916 15.525 2.63541 14.2217C1.67708 12.7171 1.67708 10.2733 2.63541 8.76874C3.74708 7.02458 5.10791 5.65416 6.62208 4.715C8.13625 3.795 9.79416 3.28708 11.5 3.28708C13.6371 3.28708 15.7071 4.07291 17.4896 5.51041ZM14.2389 11.4981C14.2389 13.0027 13.0122 14.2389 11.4981 14.2389C11.4406 14.2389 11.3927 14.2389 11.3352 14.2197L14.2197 11.3352C14.2389 11.3927 14.2389 11.4406 14.2389 11.4981Z" fill="white"/>
<path d="M20.862 2.13613C20.5745 1.84863 20.1049 1.84863 19.8174 2.13613L2.13613 19.827C1.84863 20.1145 1.84863 20.584 2.13613 20.8715C2.20435 20.9395 2.28541 20.9933 2.3746 21.0297C2.46379 21.066 2.55932 21.0843 2.65563 21.0834C2.75195 21.0825 2.84712 21.0625 2.93562 21.0245C3.02412 20.9864 3.10417 20.9312 3.17113 20.862L20.862 3.17113C21.159 2.88363 21.159 2.42363 20.862 2.13613V2.13613Z" fill="white"/>
</svg>
