<svg width="23" height="23" viewBox="0 0 23 23" fill="none" xmlns="http://www.w3.org/2000/svg">
<path d="M14.2217 10.4449L19.6458 6.81278C20.1921 6.44862 20.3358 5.70112 19.9717 5.16445L18.2275 2.56737C17.8633 2.02112 17.1158 1.87737 16.5792 2.24153L11.155 5.87362L14.2217 10.4449Z" fill="white"/>
<path d="M13.915 9.98774L12.2283 11.1186L9.66958 12.834L9.33416 13.0544L9.18083 12.8244L7.03416 9.62357L6.88083 9.39357L11.4617 6.3269L13.915 9.98774V9.98774Z" fill="white"/>
<path d="M5.40501 15.3525L9.19042 12.8225L7.04376 9.62167L3.25834 12.1517C2.81751 12.4488 2.70251 13.0429 2.99959 13.4838L4.08251 15.0938C4.37001 15.5346 4.96417 15.6496 5.40501 15.3525ZM15.87 20.9032C15.7759 20.9436 15.6752 20.9663 15.5729 20.9703C15.295 20.9703 15.0363 20.8073 14.9117 20.539L11.3371 12.6423L7.71459 20.5486C7.65515 20.6739 7.56158 20.78 7.44462 20.8545C7.32766 20.9291 7.19205 20.9692 7.05334 20.9703C6.95103 20.9663 6.85033 20.9436 6.75626 20.9032C6.58424 20.8208 6.45104 20.6747 6.38485 20.4958C6.31867 20.317 6.3247 20.1193 6.40167 19.9448L9.66959 12.834L12.2283 11.1186L16.2246 19.9544C16.3875 20.309 16.2246 20.7403 15.87 20.9032Z" fill="white"/>
</svg>
