<svg width="23" height="24" viewBox="0 0 23 24" fill="none" xmlns="http://www.w3.org/2000/svg">
<path d="M11.5 22.3021C10.7429 22.3021 10.0242 21.9188 9.52585 21.2383L8.55794 19.9446C8.35669 19.6763 8.08835 19.5229 7.80085 19.5038C7.51335 19.4846 7.22585 19.6188 6.99585 19.8583L6.4496 19.3792L6.97669 19.8679C5.5871 21.3438 4.53294 21.2288 4.02502 21.0275C3.50752 20.8263 2.63544 20.165 2.63544 18.0375V7.24667C2.63544 2.99167 3.8621 1.69792 7.87752 1.69792H15.1129C19.1284 1.69792 20.355 2.99167 20.355 7.24667V18.0375C20.355 20.1554 19.4829 20.8167 18.9654 21.0275C18.4575 21.2288 17.4034 21.3438 16.0138 19.8679C15.7838 19.6188 15.4867 19.4942 15.1992 19.5133C14.9117 19.5325 14.6338 19.6858 14.4325 19.9542L13.4646 21.2479C12.9759 21.9188 12.2571 22.3021 11.5 22.3021V22.3021ZM7.74335 18.0663H7.86794C8.5771 18.1046 9.24794 18.4783 9.69835 19.0821L10.6759 20.3758C11.1454 20.9988 11.8642 20.9988 12.3338 20.3758L13.3017 19.0821C13.7521 18.4783 14.4229 18.1046 15.1417 18.0663C15.8604 18.0279 16.56 18.325 17.0775 18.8808C17.8059 19.6571 18.2754 19.7529 18.4479 19.6858C18.6779 19.59 18.9271 19.0342 18.9271 18.0375V7.24667C18.9271 3.78709 18.3234 3.13542 15.1225 3.13542H7.87752C4.67669 3.13542 4.07294 3.78709 4.07294 7.24667V18.0375C4.07294 19.0438 4.3221 19.5996 4.5521 19.6858C4.7246 19.7529 5.19419 19.6571 5.92252 18.8808C6.42085 18.3538 7.07252 18.0663 7.74335 18.0663Z" fill="#7D7C7C"/>
<path d="M14.375 13.9167C13.8384 13.9167 13.4167 13.4854 13.4167 12.9583C13.4167 12.4312 13.8479 12 14.375 12C14.9021 12 15.3334 12.4312 15.3334 12.9583C15.3334 13.4854 14.9117 13.9167 14.375 13.9167ZM8.62502 9.125C8.08836 9.125 7.66669 8.69375 7.66669 8.16666C7.66669 7.63958 8.09794 7.20833 8.62502 7.20833C9.15211 7.20833 9.58336 7.63958 9.58336 8.16666C9.58336 8.69375 9.16169 9.125 8.62502 9.125ZM8.27044 14.4457C8.08836 14.4457 7.90628 14.3786 7.76253 14.2348C7.62886 14.0996 7.55389 13.9171 7.55389 13.7269C7.55389 13.5367 7.62886 13.3543 7.76253 13.219L14.2121 6.76941C14.49 6.49149 14.95 6.49149 15.2279 6.76941C15.5059 7.04733 15.5059 7.50733 15.2279 7.78525L8.77836 14.2348C8.71303 14.3034 8.63411 14.3575 8.54665 14.3938C8.45919 14.4301 8.36511 14.4478 8.27044 14.4457Z" fill="#7D7C7C"/>
</svg>
