<svg width="23" height="24" viewBox="0 0 23 24" fill="none" xmlns="http://www.w3.org/2000/svg">
<path d="M20.125 6.23084C16.9337 5.91459 13.7233 5.75167 10.5225 5.75167C8.625 5.75167 6.7275 5.84751 4.83 6.03917L2.875 6.23084M8.14583 5.26292L8.35667 4.00751C8.51 3.09709 8.625 2.41667 10.2446 2.41667H12.7554C14.375 2.41667 14.4996 3.13542 14.6433 4.01709L14.8542 5.26292M18.0646 9.25917L17.4417 18.9096C17.3363 20.4142 17.25 21.5833 14.5762 21.5833H8.42375C5.75 21.5833 5.66375 20.4142 5.55833 18.9096L4.93542 9.25917M9.89958 16.3125H13.0908M9.10417 12.4792H13.8958" stroke="#7D7C7C" stroke-width="1.5" stroke-linecap="round" stroke-linejoin="round"/>
</svg>
