<svg width="23" height="24" viewBox="0 0 23 24" fill="none" xmlns="http://www.w3.org/2000/svg">
<path d="M11.5 14.875C12.2625 14.875 12.9938 14.5721 13.5329 14.0329C14.0721 13.4938 14.375 12.7625 14.375 12C14.375 11.2375 14.0721 10.5062 13.5329 9.96707C12.9938 9.4279 12.2625 9.125 11.5 9.125C10.7375 9.125 10.0062 9.4279 9.46707 9.96707C8.9279 10.5062 8.625 11.2375 8.625 12C8.625 12.7625 8.9279 13.4938 9.46707 14.0329C10.0062 14.5721 10.7375 14.875 11.5 14.875V14.875Z" stroke="#7D7C7C" stroke-width="1.5" stroke-miterlimit="10" stroke-linecap="round" stroke-linejoin="round"/>
<path d="M1.91669 12.8433V11.1567C1.91669 10.16 2.73127 9.33584 3.73752 9.33584C5.4721 9.33584 6.18127 8.10917 5.30919 6.60459C4.81085 5.74209 5.10794 4.62084 5.98002 4.12251L7.63794 3.17376C8.39502 2.72334 9.37252 2.99167 9.82294 3.74876L9.92835 3.93084C10.7909 5.43542 12.2092 5.43542 13.0813 3.93084L13.1867 3.74876C13.6371 2.99167 14.6146 2.72334 15.3717 3.17376L17.0296 4.12251C17.9017 4.62084 18.1988 5.74209 17.7004 6.60459C16.8284 8.10917 17.5375 9.33584 19.2721 9.33584C20.2688 9.33584 21.0929 10.1504 21.0929 11.1567V12.8433C21.0929 13.84 20.2784 14.6642 19.2721 14.6642C17.5375 14.6642 16.8284 15.8908 17.7004 17.3954C18.1988 18.2675 17.9017 19.3792 17.0296 19.8775L15.3717 20.8263C14.6146 21.2767 13.6371 21.0083 13.1867 20.2513L13.0813 20.0692C12.2188 18.5646 10.8004 18.5646 9.92835 20.0692L9.82294 20.2513C9.37252 21.0083 8.39502 21.2767 7.63794 20.8263L5.98002 19.8775C5.56228 19.637 5.25704 19.2405 5.13127 18.7752C5.0055 18.3099 5.06949 17.8136 5.30919 17.3954C6.18127 15.8908 5.4721 14.6642 3.73752 14.6642C2.73127 14.6642 1.91669 13.84 1.91669 12.8433V12.8433Z" stroke="#7D7C7C" stroke-width="1.5" stroke-miterlimit="10" stroke-linecap="round" stroke-linejoin="round"/>
</svg>
