<svg width="35" height="35" viewBox="0 0 35 35" fill="none" xmlns="http://www.w3.org/2000/svg">
<path d="M23.6104 2.91666H11.3896C6.08125 2.91666 2.91667 6.08124 2.91667 11.3896V23.6104C2.91667 28.9187 6.08125 32.0833 11.3896 32.0833H23.6104C28.9188 32.0833 32.0833 28.9187 32.0833 23.6104V11.3896C32.0833 6.08124 28.9188 2.91666 23.6104 2.91666ZM14.5396 21.7292L11.2583 25.0104C11.0396 25.2292 10.7625 25.3312 10.4854 25.3312C10.2083 25.3312 9.91667 25.2292 9.7125 25.0104L8.61875 23.9167C8.18125 23.4937 8.18125 22.7937 8.61875 22.3708C9.04167 21.9479 9.72709 21.9479 10.1646 22.3708L10.4854 22.6917L12.9938 20.1833C13.4167 19.7604 14.1021 19.7604 14.5396 20.1833C14.9625 20.6062 14.9625 21.3062 14.5396 21.7292V21.7292ZM14.5396 11.5208L11.2583 14.8021C11.0396 15.0208 10.7625 15.1229 10.4854 15.1229C10.2083 15.1229 9.91667 15.0208 9.7125 14.8021L8.61875 13.7083C8.18125 13.2854 8.18125 12.5854 8.61875 12.1625C9.04167 11.7396 9.72709 11.7396 10.1646 12.1625L10.4854 12.4833L12.9938 9.97499C13.4167 9.55207 14.1021 9.55207 14.5396 9.97499C14.9625 10.3979 14.9625 11.0979 14.5396 11.5208ZM25.6083 24.2375H17.9521C17.3542 24.2375 16.8583 23.7417 16.8583 23.1437C16.8583 22.5458 17.3542 22.05 17.9521 22.05H25.6083C25.8984 22.05 26.1766 22.1652 26.3817 22.3703C26.5869 22.5755 26.7021 22.8537 26.7021 23.1437C26.7021 23.4338 26.5869 23.712 26.3817 23.9171C26.1766 24.1223 25.8984 24.2375 25.6083 24.2375ZM25.6083 14.0292H17.9521C17.3542 14.0292 16.8583 13.5333 16.8583 12.9354C16.8583 12.3375 17.3542 11.8417 17.9521 11.8417H25.6083C25.8984 11.8417 26.1766 11.9569 26.3817 12.162C26.5869 12.3671 26.7021 12.6453 26.7021 12.9354C26.7021 13.2255 26.5869 13.5037 26.3817 13.7088C26.1766 13.9139 25.8984 14.0292 25.6083 14.0292Z" fill="white"/>
</svg>
