<svg width="36" height="36" viewBox="0 0 36 36" fill="none" xmlns="http://www.w3.org/2000/svg">
<path d="M32.5833 24.5625V28.9375C32.5833 29.9044 32.1992 30.8318 31.5155 31.5155C30.8318 32.1992 29.9044 32.5833 28.9375 32.5833H18.525C17.2271 32.5833 16.5854 31.0229 17.4896 30.1042L26.05 21.3542C26.3271 21.0771 26.7062 20.9167 27.0854 20.9167H28.9375C29.9044 20.9167 30.8318 21.3008 31.5155 21.9845C32.1992 22.6682 32.5833 23.5956 32.5833 24.5625ZM27.2896 16.9646L23.3375 20.9167L19.75 24.4896C18.8312 25.4083 17.2562 24.7667 17.2562 23.4687V11.0875C17.2562 10.6937 17.4167 10.3292 17.6792 10.0521L19.0208 8.71041C20.45 7.28124 22.7542 7.28124 24.1833 8.71041L27.275 11.8021C28.7187 13.2312 28.7188 15.5354 27.2896 16.9646ZM11.4375 3.41666H7.0625C4.875 3.41666 3.41667 4.87499 3.41667 7.06249V26.75C3.41667 27.1437 3.46042 27.5375 3.53333 27.9167C3.57708 28.1062 3.62083 28.2958 3.67917 28.4854C3.75208 28.7042 3.825 28.9229 3.9125 29.1271C3.92708 29.1417 3.92708 29.1562 3.92708 29.1562C3.94167 29.1562 3.94167 29.1562 3.92708 29.1708C4.13125 29.5792 4.36458 29.9729 4.64167 30.3375C4.80208 30.5271 4.9625 30.7021 5.12292 30.8771C5.28333 31.0521 5.45833 31.1979 5.64792 31.3437L5.6625 31.3583C6.02708 31.6354 6.42083 31.8687 6.82917 32.0729C6.84375 32.0583 6.84375 32.0583 6.84375 32.0729C7.0625 32.175 7.28125 32.2479 7.51458 32.3208C7.70417 32.3792 7.89375 32.4229 8.08333 32.4667C8.4625 32.5396 8.85625 32.5833 9.25 32.5833C9.84792 32.5833 10.4604 32.4958 11.0292 32.3062C11.1896 32.2479 11.35 32.1896 11.5104 32.1167C12.0208 31.9125 12.5167 31.6208 12.9542 31.2417C13.0854 31.1396 13.2312 31.0083 13.3625 30.8771L13.4208 30.8187C14.4417 29.7687 15.0833 28.325 15.0833 26.75V7.06249C15.0833 4.87499 13.625 3.41666 11.4375 3.41666ZM9.25 28.9375C8.03958 28.9375 7.0625 27.9604 7.0625 26.75C7.0625 25.5396 8.03958 24.5625 9.25 24.5625C10.4604 24.5625 11.4375 25.5396 11.4375 26.75C11.4375 27.9604 10.4604 28.9375 9.25 28.9375Z" fill="white"/>
</svg>
