<svg width="35" height="35" viewBox="0 0 35 35" fill="none" xmlns="http://www.w3.org/2000/svg">
<path d="M29.1667 28.089H15.9396C15.2833 28.089 14.7438 27.5494 14.7438 26.8931C14.7438 26.2369 15.2833 25.6973 15.9396 25.6973H29.1667C29.8229 25.6973 30.3625 26.2369 30.3625 26.8931C30.3625 27.564 29.8229 28.089 29.1667 28.089ZM29.1667 18.9117H15.9396C15.2833 18.9117 14.7438 18.3721 14.7438 17.7158C14.7438 17.0596 15.2833 16.52 15.9396 16.52H29.1667C29.8229 16.52 30.3625 17.0596 30.3625 17.7158C30.3625 18.3721 29.8229 18.9117 29.1667 18.9117ZM29.1667 9.72854H15.9396C15.2833 9.72854 14.7438 9.18896 14.7438 8.53271C14.7438 7.87646 15.2833 7.33688 15.9396 7.33688H29.1667C29.8229 7.33688 30.3625 7.87646 30.3625 8.53271C30.3625 9.18896 29.8229 9.72854 29.1667 9.72854ZM7.16042 11.7133C6.83958 11.7133 6.53333 11.5821 6.31458 11.3633L4.9875 10.0362C4.76317 9.81192 4.63715 9.50767 4.63715 9.19042C4.63715 9.03333 4.66809 8.87778 4.7282 8.73265C4.78831 8.58753 4.87643 8.45566 4.9875 8.34458C5.09858 8.23351 5.23044 8.1454 5.37557 8.08528C5.5207 8.02517 5.67625 7.99423 5.83333 7.99423C6.15058 7.99423 6.45484 8.12025 6.67917 8.34458L7.16042 8.82583L10.2813 5.705C10.5056 5.48067 10.8098 5.35464 11.1271 5.35464C11.4443 5.35464 11.7486 5.48067 11.9729 5.705C12.1972 5.92933 12.3233 6.23358 12.3233 6.55083C12.3233 6.86808 12.1972 7.17234 11.9729 7.39667L8.00625 11.3633C7.77292 11.5821 7.48125 11.7133 7.16042 11.7133ZM7.16042 20.8965C6.85417 20.8965 6.54792 20.7798 6.31458 20.5465L4.9875 19.2194C4.76317 18.995 4.63715 18.6908 4.63715 18.3735C4.63715 18.0563 4.76317 17.752 4.9875 17.5277C5.21183 17.3034 5.51609 17.1774 5.83333 17.1774C6.15058 17.1774 6.45484 17.3034 6.67917 17.5277L7.16042 18.009L10.2813 14.8881C10.5056 14.6638 10.8098 14.5378 11.1271 14.5378C11.4443 14.5378 11.7486 14.6638 11.9729 14.8881C12.1972 15.1125 12.3233 15.4167 12.3233 15.734C12.3233 16.0512 12.1972 16.3555 11.9729 16.5798L8.00625 20.5465C7.77292 20.7798 7.46667 20.8965 7.16042 20.8965ZM7.16042 29.6465C6.85417 29.6465 6.54792 29.5298 6.31458 29.2965L4.9875 27.9694C4.87643 27.8583 4.78831 27.7264 4.7282 27.5813C4.66809 27.4362 4.63715 27.2806 4.63715 27.1235C4.63715 26.9665 4.66809 26.8109 4.7282 26.6658C4.78831 26.5207 4.87643 26.3888 4.9875 26.2777C5.21183 26.0534 5.51609 25.9273 5.83333 25.9273C5.99042 25.9273 6.14597 25.9583 6.2911 26.0184C6.43623 26.0785 6.56809 26.1666 6.67917 26.2777L7.16042 26.759L10.2813 23.6381C10.5087 23.4294 10.8079 23.3166 11.1165 23.3233C11.425 23.3299 11.7191 23.4554 11.9374 23.6737C12.1556 23.8919 12.2812 24.186 12.2878 24.4946C12.2944 24.8032 12.1816 25.1024 11.9729 25.3298L8.00625 29.2965C7.77292 29.5298 7.46667 29.6465 7.16042 29.6465V29.6465Z" fill="white"/>
</svg>
