<svg width="35" height="36" viewBox="0 0 35 36" fill="none" xmlns="http://www.w3.org/2000/svg">
<path d="M30.7271 8.12707C28.3792 7.89374 26.0312 7.71874 23.6687 7.58749V7.57291L23.3479 5.67707C23.1292 4.33541 22.8083 2.32291 19.3958 2.32291H15.575C12.1771 2.32291 11.8562 4.24791 11.6229 5.66249L11.3167 7.52916C9.96041 7.61666 8.60416 7.70416 7.24791 7.83541L4.27291 8.12707C3.66041 8.18541 3.22291 8.72499 3.28125 9.32291C3.33958 9.92082 3.86458 10.3583 4.47708 10.3L7.45208 10.0083C15.0937 9.24999 22.7937 9.54166 30.5229 10.3146H30.6396C31.1937 10.3146 31.675 9.89166 31.7333 9.32291C31.7553 9.03159 31.6622 8.74326 31.4741 8.51972C31.286 8.29619 31.0179 8.15523 30.7271 8.12707ZM28.0437 12.3708C27.6937 12.0062 27.2125 11.8021 26.7167 11.8021H8.28333C7.7875 11.8021 7.29166 12.0062 6.95625 12.3708C6.62083 12.7354 6.43125 13.2312 6.46041 13.7417L7.36458 28.7042C7.525 30.9208 7.72916 33.6917 12.8187 33.6917H22.1812C27.2708 33.6917 27.475 30.9354 27.6354 28.7042L28.5396 13.7562C28.5687 13.2312 28.3792 12.7354 28.0437 12.3708ZM19.9208 26.3854H15.0646C14.4667 26.3854 13.9708 25.8896 13.9708 25.2917C13.9708 24.6937 14.4667 24.1979 15.0646 24.1979H19.9208C20.5187 24.1979 21.0146 24.6937 21.0146 25.2917C21.0146 25.8896 20.5187 26.3854 19.9208 26.3854ZM21.1458 20.5521H13.8542C13.2562 20.5521 12.7604 20.0562 12.7604 19.4583C12.7604 18.8604 13.2562 18.3646 13.8542 18.3646H21.1458C21.7437 18.3646 22.2396 18.8604 22.2396 19.4583C22.2396 20.0562 21.7437 20.5521 21.1458 20.5521Z" fill="white"/>
</svg>
