<svg width="35" height="36" viewBox="0 0 35 36" fill="none" xmlns="http://www.w3.org/2000/svg">
<path d="M13.125 3.41666C9.30417 3.41666 6.19792 6.52291 6.19792 10.3437C6.19792 14.0917 9.12917 17.125 12.95 17.2562C13.0667 17.2417 13.1833 17.2417 13.2708 17.2562H13.3729C15.1657 17.1964 16.865 16.4417 18.1115 15.1517C19.3579 13.8617 20.0538 12.1375 20.0521 10.3437C20.0521 6.52291 16.9458 3.41666 13.125 3.41666ZM20.5333 21.1339C16.4646 18.4214 9.82917 18.4214 5.73125 21.1339C3.87917 22.3735 2.85834 24.0506 2.85834 25.8444C2.85834 27.6381 3.87917 29.3006 5.71667 30.5256C7.75834 31.8965 10.4417 32.5819 13.125 32.5819C15.8083 32.5819 18.4917 31.8965 20.5333 30.5256C22.3708 29.286 23.3917 27.6235 23.3917 25.8152C23.3771 24.0214 22.3708 22.3589 20.5333 21.1339ZM29.1521 11.2012C29.3854 14.0304 27.3729 16.5096 24.5875 16.845H24.5146C24.4271 16.845 24.3396 16.845 24.2667 16.8742C22.8521 16.9471 21.5542 16.495 20.5771 15.6637C22.0792 14.3221 22.9396 12.3096 22.7646 10.1221C22.6645 8.98458 22.2782 7.89091 21.6417 6.94291C22.4058 6.57115 23.2489 6.39088 24.0983 6.41765C24.9477 6.44441 25.7778 6.67741 26.517 7.09655C27.2562 7.51568 27.8824 8.10836 28.3414 8.82347C28.8005 9.53857 29.0787 10.3546 29.1521 11.2012Z" fill="white"/>
<path d="M32.0658 24.6937C31.9492 26.1083 31.045 27.3333 29.5283 28.1646C28.07 28.9667 26.2325 29.3458 24.4096 29.3021C25.4596 28.3542 26.0721 27.1729 26.1888 25.9187C26.3346 24.1104 25.4742 22.375 23.7533 20.9896C22.7763 20.2167 21.6388 19.6042 20.3992 19.1521C23.6221 18.2187 27.6763 18.8458 30.17 20.8583C31.5117 21.9375 32.1971 23.2937 32.0658 24.6937Z" fill="white"/>
</svg>
