<svg width="23" height="24" viewBox="0 0 23 24" fill="none" xmlns="http://www.w3.org/2000/svg">
<path d="M12.1325 2.91308L12.1038 2.98016L9.32461 9.42975H6.59336C5.94169 9.42975 5.31877 9.56392 4.75336 9.8035L6.43044 5.79766L6.46877 5.70183L6.53586 5.5485C6.55502 5.491 6.57419 5.4335 6.60294 5.38558C7.85836 2.48183 9.27669 1.82058 12.1325 2.91308V2.91308Z" stroke="#7D7C7C" stroke-width="1.5" stroke-linecap="round" stroke-linejoin="round"/>
<path d="M17.2979 9.62142C16.8667 9.48725 16.4067 9.42975 15.9467 9.42975H9.32458L12.1038 2.98017L12.1325 2.91309C12.2763 2.961 12.4104 3.02809 12.5542 3.08559L14.6721 3.97684C15.8508 4.46559 16.675 4.9735 17.1733 5.58684C17.2692 5.70184 17.3458 5.80725 17.4129 5.93184C17.4992 6.066 17.5663 6.20017 17.6046 6.34392C17.6429 6.43017 17.6717 6.51642 17.6908 6.59309C17.9496 7.39809 17.7963 8.38517 17.2979 9.62142V9.62142Z" stroke="#7D7C7C" stroke-width="1.5" stroke-linecap="round" stroke-linejoin="round"/>
<path d="M20.6252 14.1064V15.9752C20.6252 16.1668 20.6157 16.3585 20.6061 16.5502C20.424 19.8947 18.5552 21.5814 15.0094 21.5814H7.53441C7.30441 21.5814 7.07441 21.5622 6.854 21.5335C3.80649 21.3322 2.17733 19.7031 1.97608 16.6556C1.94733 16.4352 1.92816 16.2052 1.92816 15.9752V14.1064C1.92816 12.1802 3.09733 10.5222 4.76483 9.8035C5.33983 9.56392 5.95316 9.42975 6.60483 9.42975H15.9582C16.4277 9.42975 16.8877 9.49683 17.3094 9.62142C19.2165 10.206 20.6252 11.9885 20.6252 14.1064V14.1064Z" stroke="#7D7C7C" stroke-width="1.5" stroke-linecap="round" stroke-linejoin="round"/>
<path d="M6.43044 5.79767L4.75335 9.8035C3.91204 10.1654 3.19511 10.7658 2.69102 11.5304C2.18693 12.2951 1.91774 13.1906 1.91669 14.1064V11.2985C1.91669 8.57683 3.85252 6.30559 6.43044 5.79767V5.79767ZM20.6224 11.2985V14.1064C20.6224 11.9981 19.2232 10.206 17.3066 9.631C17.8049 8.38517 17.9486 7.40767 17.7091 6.59309C17.6899 6.50684 17.6611 6.42059 17.6228 6.34392C19.4053 7.26392 20.6224 9.15183 20.6224 11.2985Z" stroke="#7D7C7C" stroke-width="1.5" stroke-linecap="round" stroke-linejoin="round"/>
</svg>
