<svg width="40" height="40" viewBox="0 0 40 40" fill="none" xmlns="http://www.w3.org/2000/svg">
<path d="M24.75 6.58332V12.9167H22.25V6.58332C22.25 6.13332 21.85 5.91666 21.5834 5.91666C21.5 5.91666 21.4167 5.93332 21.3334 5.96666L8.11669 10.95C7.23335 11.2833 6.66669 12.1167 6.66669 13.0667V14.1833C5.15002 15.3167 4.16669 17.1333 4.16669 19.1833V13.0667C4.16669 11.0833 5.38335 9.31666 7.23335 8.61666L20.4667 3.61666C20.8334 3.48332 21.2167 3.41666 21.5834 3.41666C23.25 3.41666 24.75 4.76666 24.75 6.58332ZM35.8334 24.1667V25.8333C35.8334 26.0515 35.7479 26.261 35.5952 26.4168C35.4425 26.5726 35.2348 26.6623 35.0167 26.6667H32.5834C31.7 26.6667 30.9 26.0167 30.8334 25.15C30.7834 24.6333 30.9834 24.15 31.3167 23.8167C31.4676 23.6604 31.649 23.5368 31.8497 23.4536C32.0505 23.3705 32.2661 23.3295 32.4834 23.3333H35C35.4834 23.35 35.8334 23.7167 35.8334 24.1667Z" fill="white"/>
<path d="M32.4667 21.5833H34.1667C35.0834 21.5833 35.8334 20.8333 35.8334 19.9167V19.1833C35.8334 15.7333 33.0167 12.9167 29.5667 12.9167H10.4334C9.01669 12.9167 7.71669 13.3833 6.66669 14.1833C5.15002 15.3167 4.16669 17.1333 4.16669 19.1833V30.4C4.16669 33.85 6.98335 36.6667 10.4334 36.6667H29.5667C33.0167 36.6667 35.8334 33.85 35.8334 30.4V30.0833C35.8334 29.1667 35.0834 28.4167 34.1667 28.4167H32.7167C31.1167 28.4167 29.5834 27.4333 29.1667 25.8833C28.8167 24.6167 29.2334 23.4 30.0667 22.5833C30.6834 21.95 31.5334 21.5833 32.4667 21.5833ZM23.3334 21.25H11.6667C10.9834 21.25 10.4167 20.6833 10.4167 20C10.4167 19.3167 10.9834 18.75 11.6667 18.75H23.3334C24.0167 18.75 24.5834 19.3167 24.5834 20C24.5834 20.6833 24.0167 21.25 23.3334 21.25Z" fill="white"/>
</svg>
